<svg xmlns="http://www.w3.org/2000/svg" viewBox="0 0 320 320">
  <rect width="320" height="320" fill="white"/>
  <circle cx="160" cy="160" r="150" fill="#ffffff" stroke="#1a1a1a" stroke-width="14"/>
  <circle cx="160" cy="160" r="118" fill="#1a1a1a"/>
  <circle cx="160" cy="160" r="86" fill="#ffffff"/>
  <g fill="#f97316">
    <path d="M160 28c-9 0-18 0.7-27 2.1V160h27z"/>
    <path d="M292 160c0-9-0.7-18-2.1-27H160v27z"/>
    <path d="M160 292c9 0 18-0.7 27-2.1V160h-27z"/>
    <path d="M28 160c0 9 0.7 18 2.1 27H160v-27z"/>
  </g>
  <circle cx="160" cy="160" r="58" fill="#1a1a1a"/>
  <circle cx="160" cy="160" r="42" fill="#ffffff"/>
  <g stroke="#1a1a1a" stroke-width="8">
    <line x1="160" y1="40" x2="160" y2="120"/>
    <line x1="280" y1="160" x2="200" y2="160"/>
    <line x1="160" y1="280" x2="160" y2="200"/>
    <line x1="40" y1="160" x2="120" y2="160"/>
  </g>
  <circle cx="160" cy="160" r="22" fill="#f97316"/>
</svg>

